<svg
        width="19.991257"
        height="20.000000"
        viewBox="0 0 19.9913 20"
        fill="none"
        xmlns="http://www.w3.org/2000/svg"
        xmlns:xlink="http://www.w3.org/1999/xlink">
    <desc>Created with Pixso.</desc>
    <defs>
        <clipPath id="clip4_214">
            <rect
                    id="Frame"
                    rx="0.000000"
                    width="18.991261"
                    height="19.000000"
                    transform="translate(0.500000 0.500000)"
                    fill="white"
                    fill-opacity="0"
            />
        </clipPath>
    </defs>
    <rect
            id="Frame"
            rx="0.000000"
            width="18.991261"
            height="19.000000"
            transform="translate(0.500000 0.500000)"
            fill="#FFFFFF"
            fill-opacity="0"
    />
    <g clip-path="url(#clip4_214)">
        <path
                id="Vector"
                d="M14.56 16C10.57 19.18 4.98 18.3 2.02 14.65C-0.83 11.12 -0.65 6.04 2.44 2.82C5.64 -0.51 10.68 -0.95 14.32 1.78C15.63 2.76 16.61 4 17.24 5.5C17.88 7.02 18.07 8.59 17.85 10.22C17.63 11.83 16.99 13.27 15.94 14.62C16.02 14.67 16.11 14.71 16.18 14.78C17.33 15.93 18.48 17.08 19.63 18.23C19.91 18.5 20.04 18.82 19.96 19.2C19.8 19.96 18.9 20.25 18.32 19.73C18.04 19.49 17.79 19.22 17.54 18.96C16.59 18.01 15.64 17.06 14.69 16.12C14.65 16.08 14.61 16.04 14.56 16ZM15.95 8.98C15.96 5.12 12.84 2 8.97 2C5.12 1.99 2 5.09 1.98 8.94C1.97 12.81 5.08 15.94 8.96 15.96C12.8 15.98 15.94 12.84 15.95 8.98Z"
                fill="#3D3D3D"
                fill-opacity="1.000000"
                fill-rule="nonzero"
        />
    </g>
</svg>
